<svg width="349" height="239" viewBox="0 0 349 239" fill="none" xmlns="http://www.w3.org/2000/svg">
<rect width="349" height="239" rx="6" fill="white"/>
<path fill-rule="evenodd" clip-rule="evenodd" d="M105.949 161.905H84.8065L68.9521 101.499C68.1996 98.7203 66.6018 96.2638 64.2515 95.106C58.386 92.1964 51.9226 89.8809 44.8716 88.713V86.3874H78.9307C83.6314 86.3874 87.1569 89.8809 87.7444 93.9381L95.9706 137.511L117.103 86.3874H137.658L105.949 161.905ZM149.41 161.905H129.442L145.884 86.3874H165.852L149.41 161.905ZM191.685 107.308C192.272 103.241 195.798 100.915 199.911 100.915C206.374 100.331 213.415 101.499 219.291 104.399L222.816 88.1392C216.94 85.8136 210.477 84.6458 204.611 84.6458C185.231 84.6458 171.129 95.1061 171.129 109.624C171.129 120.668 181.118 126.467 188.169 129.96C195.798 133.444 198.736 135.769 198.148 139.253C198.148 144.478 192.272 146.804 186.407 146.804C179.356 146.804 172.305 145.062 165.852 142.152L162.326 158.422C169.377 161.321 177.005 162.489 184.056 162.489C205.787 163.063 219.291 152.613 219.291 136.927C219.291 117.174 191.685 116.017 191.685 107.308V107.308ZM289.172 161.905L273.317 86.3874H256.288C252.762 86.3874 249.237 88.713 248.061 92.1964L218.703 161.905H239.258L243.361 150.871H268.617L270.967 161.905H289.172ZM259.226 106.724L265.091 135.185H248.649L259.226 106.724Z" fill="#172B85"/>
</svg>
