<svg style="height: 18px; object-fit: contain" viewBox="0 0 513 265" fill="none" xmlns="http://www.w3.org/2000/svg">
<path d="M24.0559 132.19L51.4885 159.622C164.569 272.703 348.535 272.703 461.616 159.622L488.944 132.19L461.512 104.757C348.431 -8.32401 164.465 -8.32401 51.3838 104.757L24.0559 132.19ZM256.5 264.327C177.134 264.327 97.7679 234.067 37.3534 173.653L2.90555 139.205C-0.968517 135.331 -0.968517 129.048 2.90555 125.07L37.3534 90.6218C158.182 -30.2073 354.818 -30.2073 475.647 90.6218L510.094 125.07C513.969 128.944 513.969 135.226 510.094 139.205L475.647 173.653C415.232 234.067 335.866 264.327 256.5 264.327Z" fill="#231F20"/>
<path d="M256.5 56.2786C214.618 56.2786 180.589 90.3076 180.589 132.189C180.589 174.071 214.618 208.1 256.5 208.1C298.382 208.1 332.411 174.071 332.411 132.189C332.411 90.3076 298.382 56.2786 256.5 56.2786ZM256.5 227.994C203.624 227.994 160.695 184.961 160.695 132.189C160.695 79.3136 203.729 36.3848 256.5 36.3848C309.271 36.3848 352.305 79.4183 352.305 132.189C352.305 185.065 309.376 227.994 256.5 227.994Z" fill="#231F20"/>
</svg>
