<svg width="348" height="239" viewBox="0 0 348 239" fill="none" xmlns="http://www.w3.org/2000/svg">
<rect width="348" height="239" rx="6" fill="white"/>
<path fill-rule="evenodd" clip-rule="evenodd" d="M53.9318 153.155H39.7715V89.625H53.9318V153.155ZM89.2841 89.625H75.4309C75.4309 101.316 70.2106 112.047 61.1089 119.067L55.6205 123.299L76.8862 153.158H94.3707L74.8034 125.684C84.0787 116.173 89.2841 103.379 89.2841 89.625ZM111.87 153.138H98.4972V89.6372H111.87V153.138ZM152.273 109.212V112.022C148.665 109.487 144.31 107.998 139.612 107.998C127.18 107.998 117.102 118.375 117.102 131.176C117.102 143.977 127.18 154.354 139.612 154.354C144.31 154.354 148.665 152.865 152.273 150.331V153.138H165.046V109.212H152.273ZM152.234 131.176C152.234 137.418 147.053 142.478 140.661 142.478C134.269 142.478 129.087 137.418 129.087 131.176C129.087 124.934 134.269 119.876 140.661 119.876C147.053 119.876 152.234 124.934 152.234 131.176ZM287.022 112.022V109.212H299.794V153.138H287.022V150.331C283.413 152.865 279.058 154.354 274.36 154.354C261.928 154.354 251.85 143.977 251.85 131.176C251.85 118.375 261.928 107.998 274.36 107.998C279.058 107.998 283.413 109.487 287.022 112.022ZM275.409 142.478C281.801 142.478 286.982 137.418 286.982 131.176C286.982 124.934 281.801 119.876 275.409 119.876C269.017 119.876 263.835 124.934 263.835 131.176C263.835 137.418 269.017 142.478 275.409 142.478ZM229.153 108.03C224.051 108.03 219.222 109.661 215.994 114.161V109.215H203.276V153.138H216.15V130.055C216.15 123.375 220.5 120.104 225.738 120.104C231.352 120.104 234.579 123.557 234.579 129.964V153.138H247.336V125.205C247.336 114.982 239.443 108.03 229.153 108.03ZM184.804 109.213V114.934C187.365 111.502 192.136 109.215 197.322 109.215V121.997C197.298 121.997 197.275 121.995 197.251 121.994L197.251 121.994C197.224 121.993 197.198 121.991 197.171 121.991C192.117 121.991 184.834 125.711 184.834 132.63V153.138H171.727V109.213H184.804ZM305.337 145.811C305.337 141.253 308.925 137.558 313.352 137.558C317.778 137.558 321.367 141.253 321.367 145.811C321.367 150.369 317.778 154.064 313.352 154.064C308.925 154.064 305.337 150.369 305.337 145.811Z" fill="#17120F"/>
</svg>
