<svg width="349" height="239" viewBox="0 0 349 239" fill="none" xmlns="http://www.w3.org/2000/svg">
<rect width="349" height="239" rx="6" fill="white"/>
<path d="M53.5637 102.65C51.2673 102.65 51.0409 101.89 51.0409 96.3561V95.4116C51.0409 89.8584 51.2673 89.1067 53.5637 89.1067H106.075C108.379 89.1067 108.606 89.8584 108.606 95.4041V96.3485C108.606 101.89 108.375 102.646 106.075 102.646H53.5637V102.65V102.65ZM53.5637 78.2798C51.2673 78.2798 51.0409 77.5243 51.0409 71.9824V71.038C51.0409 65.4772 51.2673 64.7292 53.5637 64.7292H106.075C108.379 64.7292 108.606 65.4848 108.606 71.038V71.9824C108.606 77.5243 108.375 78.2798 106.075 78.2798H53.5637ZM61.4303 150.653C61.4303 141.481 66.1303 136.437 73.2022 136.437C75.8721 136.437 78.0096 137.178 80.6834 138.443C81.6528 138.912 82.4553 138.723 83.7267 135.856L84.6524 133.906C85.5662 131.557 85.6337 130.586 84.5253 130.064C81.2475 128.24 76.174 127.088 71.7918 127.088C59.3047 127.088 49.8569 136.494 49.8569 150.653C49.8569 164.808 59.3047 174.214 71.7878 174.214C76.174 174.214 81.3627 173.066 84.6524 171.23C85.7489 170.72 85.6774 169.738 84.7716 167.388L83.8578 165.329C82.5864 162.458 81.7799 162.296 80.8026 162.741C78.1287 164.014 75.876 164.755 73.2022 164.755C66.1303 164.755 61.4422 159.821 61.4422 150.653H61.4342H61.4303ZM210.219 172.046C210.219 173.292 209.726 173.632 206.019 173.632H205.65C201.744 173.632 201.2 173.462 200.894 172.552C200.689 171.934 200.526 171.305 200.405 170.667C198.34 173.017 195.848 174.271 192.054 174.271C182.853 174.271 177.322 167.849 177.322 157.521C177.322 146.358 183.477 139.747 192.603 139.747C195.173 139.747 197.541 140.502 199.369 141.877V127.371C199.369 126.4 199.488 125.996 204.613 125.996H204.982C209.726 125.996 210.215 126.4 210.215 127.371V172.046H210.219ZM199.373 150.022C198.746 149.371 197.984 148.851 197.134 148.496C196.284 148.141 195.366 147.958 194.438 147.959C190.354 147.959 188.415 151.333 188.415 157.528C188.415 161.079 189.206 163.334 190.354 164.517C191.387 165.737 192.976 166.13 194.506 166.13C196.393 166.13 197.851 165.688 198.526 164.868C199.126 164.241 199.369 163.27 199.369 161.034V150.018L199.376 150.022H199.373ZM265.507 172.273C265.507 173.236 265.018 173.632 260.263 173.632H259.897C254.78 173.632 254.673 173.236 254.673 172.273V127.371C254.673 126.4 254.78 125.996 259.893 125.996H260.259C265.01 125.996 265.503 126.4 265.503 127.371V172.273H265.507ZM227.35 160.335C227.954 164.404 230.632 166.36 234.839 166.36C238.077 166.36 241.109 165.68 244.653 164.241C245.392 163.958 246.055 164.241 246.838 166.519L247.394 167.796C248.177 170.146 248.109 170.667 247.267 171.117C243.056 173.349 238.673 174.263 233.798 174.263C223.024 174.263 216.266 168.03 216.266 157.358C216.266 146.981 222.475 139.747 233.135 139.747C243.679 139.747 249.091 146.864 249.091 156.724C249.091 159.995 248.793 160.335 247.573 160.335H227.35ZM238.244 153.977C238.077 150.547 236.615 147.555 233.02 147.555C229.901 147.555 227.644 149.784 227.219 153.977H238.244ZM282.384 160.335C282.98 164.404 285.666 166.36 289.877 166.36C293.087 166.36 296.147 165.68 299.679 164.241C300.402 163.958 301.085 164.241 301.872 166.519L302.424 167.796C303.207 170.146 303.143 170.667 302.305 171.117C298.093 173.349 293.703 174.263 288.824 174.263C278.046 174.263 271.296 168.03 271.296 157.358C271.296 146.981 277.493 139.747 288.157 139.747C298.709 139.747 304.128 146.864 304.128 156.724C304.128 159.995 303.822 160.335 302.603 160.335H282.38H282.384ZM293.29 153.977C293.091 150.547 291.641 147.555 288.046 147.555C284.939 147.555 282.674 149.784 282.253 153.977H293.29V153.977ZM159.984 150.249C159.435 149.56 158.727 149 157.914 148.614C157.101 148.227 156.205 148.024 155.296 148.02C151.212 148.02 149.269 151.401 149.269 157.415C149.269 162.515 150.715 166.304 155.165 166.304C156.818 166.304 158.026 165.903 158.888 165.091C159.674 164.298 159.984 163.202 159.984 160.807V150.249ZM170.95 172.046C170.95 173.292 170.469 173.632 166.754 173.632H166.254C162.36 173.632 161.812 173.462 161.51 172.552C161.301 171.935 161.138 171.305 161.021 170.667C158.955 173.017 156.452 174.271 152.67 174.271C143.838 174.271 138.169 167.955 138.169 157.649C138.169 146.184 145.177 139.747 153.465 139.747C156.818 139.747 159.734 141.076 161.323 142.965L161.51 141.53C161.562 140.85 161.756 140.396 165.761 140.396H166.194C170.342 140.396 170.942 140.672 170.942 141.719V172.046H170.95V172.046ZM120.099 130.707C124.176 130.707 124.422 130.756 124.422 132.017V140.389H131.434C132.404 140.389 132.706 140.559 132.706 143.709V144.174C132.706 147.317 132.404 147.498 131.434 147.498H124.422V162.522C124.422 165.038 124.903 166.36 127.338 166.36C128.61 166.36 129.722 166.13 130.819 165.794C131.971 165.374 132.408 165.903 133.194 168.533L133.377 169.163C134.227 172.046 133.977 172.273 132.892 172.779C130.699 173.753 127.767 174.271 125.03 174.271C116.381 174.271 113.945 170.146 113.945 162.968V147.498H109.861C108.828 147.498 108.57 147.31 108.57 144.174V143.709C108.57 140.559 108.824 140.396 109.861 140.396H114.43C114.927 137.703 115.769 133.91 116.321 132.017C116.627 130.926 116.81 130.707 120.099 130.707V130.707ZM97.4375 140.396C102.193 140.396 102.614 140.785 102.614 141.768V172.273C102.614 173.292 102.193 173.632 97.4375 173.632H97.1276C91.8952 173.632 91.776 173.292 91.776 172.273V141.768C91.776 140.785 91.8952 140.396 97.1276 140.396H97.4375ZM97.1276 125.486C100.56 125.486 103.047 128.006 103.047 130.869C103.032 131.587 102.867 132.294 102.561 132.951C102.256 133.607 101.816 134.199 101.267 134.692C100.155 135.693 98.6651 136.237 97.1276 136.203C93.7346 136.203 91.2197 133.683 91.2197 130.869C91.2197 127.998 93.7346 125.486 97.1276 125.486V125.486Z" fill="#EE293D"/>
</svg>
