<svg xmlns="http://www.w3.org/2000/svg" viewBox="0 0 337.94 421.48"><g id="Ebene_2" data-name="Ebene 2"><g id="Ebene_1-2" data-name="Ebene 1"><path d="M337.69,385.58,301.08,86.79a10,10,0,0,0-9.88-8.74H46.73a10,10,0,0,0-9.88,8.74L.24,385.58A32,32,0,0,0,32,421.48H305.92A32,32,0,0,0,337.69,385.58ZM268.84,141.66c-.16,3.29-.48,6.53-.94,9.72-7.1,48.82-48.69,86.29-98.93,86.29S77.14,200.2,70,151.38c-.46-3.19-.78-6.43-.94-9.72v0a24.81,24.81,0,0,1,24.68-22.26q1.06,0,2.1.09A3.05,3.05,0,0,1,98.67,123a76.8,76.8,0,0,0,5.08,43.86C115,192.6,139.94,210.5,169,210.5s54-17.9,65.22-43.62a75.89,75.89,0,0,0,6.27-30.35,77,77,0,0,0-1.18-13.42,3.14,3.14,0,0,1,2.86-3.67c.66,0,1.34-.08,2-.08a24.81,24.81,0,0,1,24.68,22.26Z"/><path d="M250.13,64H225.46a2.64,2.64,0,0,1-2.33-1.43c-11.27-21.74-31.31-36.2-54.16-36.2s-42.89,14.46-54.16,36.2A2.62,2.62,0,0,1,112.48,64H87.8a1.46,1.46,0,0,1-1.38-2C100.28,25.52,132,0,169,0s68.68,25.52,82.54,62A1.46,1.46,0,0,1,250.13,64Z"/></g></g></svg>