<svg width="348" height="239" viewBox="0 0 348 239" fill="none" xmlns="http://www.w3.org/2000/svg">
<rect width="348" height="239" rx="6" fill="white"/>
<path fill-rule="evenodd" clip-rule="evenodd" d="M98.4342 151.774H82.967C81.9085 151.774 81.0083 152.545 80.8433 153.591L74.5875 193.315C74.4632 194.099 75.0693 194.806 75.8631 194.806H83.2474C84.3058 194.806 85.206 194.035 85.371 192.987L87.0583 182.273C87.221 181.224 88.1234 180.454 89.1797 180.454H94.0761C104.265 180.454 110.145 175.516 111.681 165.731C112.373 161.449 111.711 158.086 109.708 155.729C107.51 153.143 103.611 151.774 98.4342 151.774ZM100.219 166.283C99.373 171.842 95.1323 171.842 91.032 171.842H88.6979L90.3354 161.46C90.4326 160.833 90.9754 160.371 91.6087 160.371H92.6784C95.4715 160.371 98.1066 160.371 99.4683 161.965C100.279 162.917 100.528 164.33 100.219 166.283ZM144.67 166.105H137.263C136.632 166.105 136.086 166.567 135.989 167.195L135.661 169.269L135.143 168.518C133.54 166.187 129.965 165.408 126.396 165.408C118.21 165.408 111.22 171.616 109.858 180.326C109.151 184.67 110.156 188.824 112.617 191.722C114.875 194.385 118.104 195.496 121.947 195.496C128.541 195.496 132.199 191.248 132.199 191.248L131.868 193.31C131.744 194.098 132.35 194.805 133.139 194.805H139.811C140.873 194.805 141.767 194.034 141.935 192.986L145.938 167.595C146.065 166.814 145.461 166.105 144.67 166.105ZM134.345 180.543C133.63 184.781 130.271 187.626 125.989 187.626C123.838 187.626 122.118 186.936 121.015 185.626C119.92 184.326 119.504 182.475 119.852 180.414C120.52 176.212 123.935 173.275 128.153 173.275C130.256 173.275 131.966 173.974 133.092 175.295C134.22 176.629 134.668 178.491 134.345 180.543ZM176.674 166.104H184.118C185.16 166.104 185.768 167.275 185.176 168.131L160.42 203.92C160.019 204.5 159.359 204.845 158.654 204.845H151.219C150.173 204.845 149.562 203.665 150.168 202.806L157.876 191.908L149.678 167.811C149.394 166.974 150.012 166.104 150.901 166.104H158.215C159.165 166.104 160.004 166.728 160.278 167.639L164.629 182.193L174.895 167.048C175.297 166.457 175.965 166.104 176.674 166.104Z" fill="#253B80"/>
<path fill-rule="evenodd" clip-rule="evenodd" d="M257.375 193.315L263.723 152.864C263.82 152.236 264.364 151.774 264.995 151.772H272.141C272.93 151.772 273.536 152.481 273.412 153.265L267.152 192.987C266.989 194.035 266.088 194.806 265.028 194.806H258.646C257.857 194.806 257.251 194.099 257.375 193.315ZM208.761 151.774H193.291C192.235 151.774 191.335 152.545 191.169 153.591L184.914 193.315C184.789 194.099 185.395 194.806 186.185 194.806H194.123C194.861 194.806 195.492 194.267 195.607 193.533L197.382 182.273C197.545 181.224 198.448 180.454 199.504 180.454H204.398C214.589 180.454 220.467 175.516 222.005 165.73C222.699 161.449 222.032 158.086 220.031 155.729C217.834 153.143 213.938 151.774 208.761 151.774ZM210.545 166.283C209.702 171.842 205.461 171.842 201.358 171.842H199.026L200.666 161.46C200.764 160.833 201.302 160.371 201.937 160.371H203.007C205.798 160.371 208.435 160.371 209.796 161.965C210.608 162.917 210.855 164.33 210.545 166.283ZM254.992 166.105H247.591C246.954 166.105 246.414 166.567 246.319 167.195L245.991 169.269L245.471 168.518C243.868 166.186 240.295 165.408 236.726 165.408C228.54 165.408 221.552 171.616 220.19 180.326C219.485 184.67 220.486 188.824 222.947 191.722C225.209 194.385 228.434 195.495 232.276 195.495C238.871 195.495 242.528 191.248 242.528 191.248L242.198 193.31C242.074 194.098 242.68 194.805 243.474 194.805H250.143C251.199 194.805 252.099 194.034 252.265 192.986L256.27 167.595C256.393 166.814 255.787 166.105 254.992 166.105ZM244.668 180.543C243.958 184.781 240.595 187.626 236.311 187.626C234.164 187.626 232.442 186.935 231.338 185.626C230.243 184.326 229.831 182.475 230.176 180.414C230.847 176.212 234.258 173.275 238.476 173.275C240.579 173.275 242.288 173.974 243.416 175.295C244.548 176.629 244.996 178.491 244.668 180.543Z" fill="#179BD7"/>
<path d="M155.675 137.563L157.577 125.466L153.341 125.368H133.115L147.171 36.1029C147.214 35.8334 147.357 35.5821 147.564 35.4037C147.771 35.2253 148.037 35.127 148.313 35.127H182.417C193.74 35.127 201.553 37.4867 205.632 42.1441C207.544 44.3291 208.763 46.6123 209.352 49.1249C209.97 51.7615 209.981 54.9114 209.377 58.7532L209.333 59.0336V61.4952L211.246 62.5805C212.857 63.4362 214.136 64.4157 215.118 65.5374C216.755 67.4054 217.813 69.7797 218.26 72.5946C218.721 75.4896 218.569 78.9345 217.813 82.8346C216.94 87.321 215.529 91.2283 213.624 94.4256C211.871 97.3716 209.639 99.8145 206.989 101.709C204.458 103.508 201.451 104.873 198.052 105.748C194.757 106.606 191.002 107.04 186.882 107.04H184.228C182.33 107.04 180.486 107.725 179.04 108.952C177.589 110.205 176.628 111.916 176.334 113.788L176.134 114.877L172.775 136.197L172.622 136.98C172.582 137.229 172.513 137.352 172.412 137.436C172.321 137.512 172.19 137.563 172.062 137.563H155.675Z" fill="#253B80"/>
<path d="M213.057 59.3188C212.956 59.9706 212.84 60.637 212.709 61.3216C208.211 84.449 192.824 92.4386 173.172 92.4386H163.166C160.763 92.4386 158.738 94.1864 158.363 96.5607L153.24 129.102L151.789 138.325C151.546 139.884 152.746 141.29 154.316 141.29H172.063C174.165 141.29 175.95 139.76 176.28 137.685L176.455 136.781L179.797 115.544L180.011 114.379C180.338 112.296 182.127 110.767 184.228 110.767H186.883C204.076 110.767 217.537 103.775 221.471 83.5423C223.114 75.0903 222.263 68.033 217.915 63.0696C216.599 61.5729 214.966 60.3311 213.057 59.3188Z" fill="#179BD7"/>
<path d="M208.351 57.4413C207.664 57.241 206.954 57.0589 206.227 56.895C205.496 56.7349 204.747 56.5928 203.977 56.469C201.279 56.032 198.323 55.8245 195.156 55.8245H168.425C167.767 55.8245 167.142 55.9737 166.582 56.2432C165.349 56.8368 164.433 58.0058 164.211 59.4368L158.524 95.5099L158.361 96.5622C158.736 94.1879 160.761 92.44 163.164 92.44H173.169C192.822 92.44 208.209 84.4469 212.707 61.3232C212.841 60.6385 212.954 59.9722 213.055 59.3204C211.917 58.7158 210.684 58.1987 209.357 57.7581C209.031 57.6488 208.693 57.5433 208.351 57.4413Z" fill="#222D65"/>
<path d="M164.212 59.436C164.434 58.0049 165.35 56.836 166.582 56.246C167.146 55.9765 167.768 55.8272 168.425 55.8272H195.157C198.324 55.8272 201.28 56.0348 203.977 56.4718C204.748 56.5956 205.498 56.7376 206.228 56.8978C206.956 57.0617 207.664 57.2438 208.352 57.444C208.693 57.546 209.031 57.6516 209.362 57.7573C210.689 58.1978 211.922 58.7186 213.059 59.3195C214.398 50.7728 213.049 44.9536 208.435 39.6843C203.349 33.8834 194.168 31.3999 182.421 31.3999H148.316C145.916 31.3999 143.87 33.1478 143.498 35.5257L129.293 125.708C129.013 127.492 130.387 129.102 132.183 129.102H153.239L158.525 95.509L164.212 59.436Z" fill="#253B80"/>
</svg>
