<svg width="348" height="239" viewBox="0 0 348 239" fill="none" xmlns="http://www.w3.org/2000/svg">
<rect width="348" height="239" rx="6" fill="white"/>
<path fill-rule="evenodd" clip-rule="evenodd" d="M209.835 167.747C211.794 162.765 216.154 151.6 214.081 148.895H214.096C212.032 146.184 200.445 147.606 195.233 148.246L195.222 148.248C193.636 148.443 193.392 147.031 194.818 146.01C204.072 139.36 219.234 141.262 220.995 143.507C222.755 145.753 220.514 161.299 211.847 168.722C210.513 169.86 209.24 169.252 209.835 167.747ZM147.564 175.435C167.719 175.435 191.189 168.925 207.357 156.723V156.746C210.033 154.688 207.738 151.663 205.009 152.848C187.361 160.462 168.417 164.436 149.264 164.543C122.691 164.543 96.9865 157.089 76.1915 144.716C74.3697 143.632 73.0128 145.542 74.5374 146.938C94.5572 165.413 120.6 175.575 147.564 175.435Z" fill="#FF9900"/>
<path fill-rule="evenodd" clip-rule="evenodd" d="M279.355 138.9H287.938H287.945C288.843 138.917 289.589 138.196 289.622 137.278V112.945C289.622 109.888 289.783 107.128 290.987 104.368C291.814 102.269 293.762 100.855 295.972 100.751C301.463 100.751 301.41 106.904 301.368 111.739C301.365 112.146 301.362 112.545 301.362 112.929V137.481C301.468 138.268 302.109 138.866 302.886 138.9H311.546C312.367 138.918 313.074 138.311 313.2 137.481V109.031C313.2 104.657 313.2 98.5677 310.951 94.9501C308.519 91.0518 304.754 89.625 300.897 89.625C294.951 89.625 291.574 92.5721 289.165 98.7549H288.997V91.8392C288.823 91.1163 288.2 90.6001 287.473 90.5762H279.484C278.64 90.555 277.921 91.199 277.83 92.0576V137.278C277.841 138.145 278.508 138.855 279.355 138.9ZM271.275 115.182C271.275 100.915 264.361 89.6874 251.577 89.6874C239.122 89.6874 232.208 100.727 232.208 114.707C232.208 128.686 239.038 139.913 251.577 139.913C263.652 139.913 271.275 128.975 271.275 115.182ZM244.907 113.28C244.907 107.76 245.311 98.9186 251.661 98.9186C254.39 98.9186 256.318 100.174 257.287 103.292C258.415 106.902 258.575 111.471 258.575 115.276C258.575 121.077 258.323 130.589 251.577 130.589C244.905 130.589 244.906 119.056 244.907 113.463L244.907 113.28ZM83.8375 138.994H92.4436H92.4512C92.8832 139.004 93.3014 138.838 93.6133 138.532C93.9252 138.226 94.105 137.806 94.113 137.364V113.405L94.1128 113.03C94.1093 107.82 94.1046 100.93 100.059 100.93C105.563 100.93 105.478 106.984 105.409 111.872C105.402 112.4 105.395 112.914 105.395 113.405V137.372C105.409 138.237 106.074 138.944 106.919 138.994H115.548C115.979 139.002 116.395 138.835 116.705 138.529C117.016 138.223 117.194 137.804 117.203 137.364V113.405C117.203 113.226 117.202 113.042 117.202 112.853V112.849V112.844V112.84V112.835C117.197 110.297 117.189 106.871 118.011 104.743C118.848 102.567 120.871 101.111 123.156 101.039C125.649 101.039 127.577 101.897 128.217 104.938C128.544 106.401 128.502 109.794 128.474 112.043V112.044V112.044V112.045V112.045C128.467 112.575 128.461 113.042 128.461 113.405V137.372C128.472 138.239 129.139 138.948 129.986 138.994H138.592C139.024 139.004 139.442 138.838 139.754 138.532C140.066 138.226 140.246 137.806 140.254 137.364V108.836C140.254 108.14 140.266 107.429 140.278 106.711C140.348 102.451 140.423 97.9171 138.081 94.6615C135.243 90.9687 130.678 89.1285 126.139 89.8475C121.601 90.5665 117.794 93.733 116.181 98.131C113.765 92.4161 110.311 89.7575 105.006 89.7575C99.7005 89.7575 95.7595 92.4161 93.6709 98.131H93.5108V92.229C93.4654 91.3878 92.8087 90.7161 91.9862 90.6697H83.9594C83.073 90.6607 82.3418 91.3774 82.3129 92.2836V137.504C82.391 138.318 83.0391 138.951 83.8375 138.994ZM68.8585 139.337C68.2917 139.839 67.477 139.924 66.8232 139.547C64.3842 137.472 63.6489 136.35 62.5197 134.627C62.3254 134.33 62.1195 134.016 61.8913 133.676C57.1575 138.604 53.8111 140.077 47.69 140.077C40.4407 140.077 34.7998 135.501 34.7998 126.347C34.7998 119.198 38.6112 114.34 43.9472 111.955C47.8873 110.186 53.1446 109.637 57.6896 109.163L57.6899 109.163L57.6904 109.163L57.6912 109.163L57.692 109.163L57.6925 109.162C58.5366 109.074 59.3561 108.989 60.138 108.898V107.76C60.138 107.543 60.1398 107.321 60.1415 107.097C60.1566 105.156 60.1733 102.995 59.0937 101.367C58.0418 99.7452 56.0446 99.0824 54.2608 99.0824C50.9754 99.0824 48.0483 100.806 47.3317 104.369C47.2409 105.2 46.6156 105.865 45.8071 105.99L37.5288 105.062C37.1157 105.002 36.7449 104.771 36.5029 104.423C36.2609 104.075 36.1688 103.642 36.2481 103.222C38.1615 92.8685 47.3088 89.7421 55.5034 89.7421C59.6959 89.7421 65.1691 90.8804 68.4621 94.1238C72.3279 97.8256 72.304 102.672 72.2779 107.968V107.968V107.968V107.968V107.968V107.968C72.2757 108.405 72.2736 108.845 72.2736 109.288V123.003C72.2736 126.696 73.6134 128.533 75.0247 130.469C75.1923 130.698 75.361 130.93 75.5285 131.166C76.0773 131.945 76.1993 132.92 75.5285 133.505C73.7676 135.009 70.6423 137.785 68.9271 139.352L68.8585 139.337ZM60.176 117.864L60.1762 118.291C60.1793 121.534 60.1818 124.284 58.5676 127.22C57.1955 129.7 55.023 131.228 52.5989 131.228C49.2982 131.228 47.3697 128.655 47.3697 124.835C47.3697 117.334 53.9481 115.97 60.176 115.97V117.864ZM187.887 130.436L187.888 130.437L187.889 130.439L187.891 130.441L187.892 130.443C188.058 130.671 188.226 130.9 188.392 131.134C188.971 131.945 189.093 132.896 188.354 133.434C186.593 134.939 183.468 137.723 181.753 139.282C181.182 139.778 180.37 139.859 179.717 139.485C177.268 137.4 176.542 136.295 175.397 134.549C175.205 134.258 175.002 133.948 174.778 133.614C170.052 138.541 166.682 140.015 160.584 140.015C153.335 140.015 147.694 135.438 147.694 126.293C147.694 119.135 151.482 114.278 156.879 111.892C160.828 110.117 166.115 109.571 170.673 109.1C171.5 109.014 172.303 108.931 173.07 108.844V107.729C173.07 107.513 173.072 107.292 173.074 107.069C173.089 105.127 173.105 102.966 172.018 101.343C170.997 99.7217 168.961 99.0512 167.185 99.0512C163.9 99.0512 160.988 100.774 160.264 104.337C160.171 105.167 159.546 105.831 158.739 105.959L150.392 105.039C149.976 104.981 149.602 104.749 149.358 104.399C149.114 104.05 149.022 103.613 149.104 103.191C151.025 92.8295 160.172 89.7108 168.367 89.7108C172.552 89.7108 178.025 90.8491 181.326 94.0925C185.199 97.7752 185.172 102.584 185.142 107.853L185.142 107.858C185.14 108.321 185.137 108.787 185.137 109.257V122.979C185.137 126.665 186.476 128.501 187.887 130.436ZM165.508 131.181C167.925 131.181 170.105 129.653 171.469 127.181C173.089 124.229 173.088 121.466 173.086 118.183L173.085 117.833V115.931C166.858 115.931 160.279 117.287 160.279 124.796C160.279 128.608 162.208 131.181 165.508 131.181ZM195.679 92.1276V98.5676C195.674 99.0094 195.847 99.4337 196.157 99.7417C196.467 100.05 196.886 100.214 197.318 100.197H212.137L195.145 125.146C194.37 126.485 194.004 128.03 194.093 129.583V136.171C194.093 137.122 195.123 138.206 196.106 137.668C205.477 132.698 216.622 132.678 226.01 137.613C227.085 138.182 228.099 137.083 228.099 136.132V129.208C228.07 128.15 227.488 127.188 226.574 126.69C221.627 123.844 215.872 123.01 210.429 123.143L225.095 101.733C226.46 99.8151 227.222 98.5988 227.222 97.671V92.1276C227.227 91.6873 227.055 91.2642 226.747 90.9565C226.439 90.6488 226.021 90.4832 225.591 90.4981H197.287C196.857 90.4734 196.436 90.6365 196.129 90.9471C195.822 91.2578 195.659 91.6867 195.679 92.1276Z" fill="black"/>
</svg>
