<svg width="349" height="239" viewBox="0 0 349 239" fill="none" xmlns="http://www.w3.org/2000/svg">
<rect width="349" height="239" rx="6" fill="white"/>
<path fill-rule="evenodd" clip-rule="evenodd" d="M83.2234 88.9573C87.9104 89.3521 92.5974 86.5882 95.5267 83.0839C98.4073 79.4808 100.311 74.6439 99.8231 69.7083C95.6732 69.9057 90.5468 72.4722 87.6175 76.0752C84.9322 79.1847 82.6376 84.2191 83.2234 88.9573ZM138.979 152.528V75.5816H167.54C182.285 75.5816 192.586 85.8478 192.586 100.852C192.586 115.857 182.089 126.221 167.15 126.221H150.794V152.528H138.979ZM99.7739 89.895C95.6448 89.6548 91.8771 91.1504 88.8339 92.3584C86.8755 93.1359 85.2171 93.7942 83.9554 93.7942C82.5395 93.7942 80.8126 93.1007 78.8737 92.322C76.3332 91.3017 73.4286 90.1352 70.3827 90.1912C63.401 90.2899 56.9076 94.2877 53.3435 100.655C46.0201 113.389 51.4394 132.243 58.5187 142.608C61.9852 147.741 66.1351 153.367 71.6032 153.17C74.0089 153.078 75.7394 152.336 77.5303 151.568C79.5921 150.683 81.7339 149.764 85.0783 149.764C88.3067 149.764 90.3549 150.659 92.321 151.518C94.1905 152.335 95.9858 153.119 98.651 153.071C104.314 152.973 107.878 147.938 111.345 142.805C115.086 137.296 116.73 131.919 116.979 131.103L116.995 131.051C116.998 131.041 117.001 131.033 117.003 131.026C117.005 131.019 117.007 131.013 117.008 131.009C117.002 131.003 116.956 130.982 116.875 130.944C115.624 130.365 106.066 125.942 105.974 114.08C105.882 104.123 113.556 99.0789 114.763 98.2848C114.837 98.2365 114.887 98.2039 114.909 98.1869C110.027 90.8822 102.41 90.0924 99.7739 89.895ZM214.166 153.121C221.588 153.121 228.472 149.32 231.596 143.299H231.84V152.528H242.777V114.228C242.777 103.123 233.988 95.9659 220.465 95.9659C207.917 95.9659 198.641 103.221 198.299 113.191H208.942C209.821 108.453 214.166 105.344 220.123 105.344C227.349 105.344 231.401 108.749 231.401 115.017V119.262L216.656 120.151C202.937 120.99 195.516 126.666 195.516 136.537C195.516 146.507 203.181 153.121 214.166 153.121ZM217.339 143.99C211.041 143.99 207.038 140.93 207.038 136.241C207.038 131.404 210.895 128.591 218.267 128.146L231.4 127.307V131.651C231.4 138.857 225.346 143.99 217.339 143.99ZM279.051 155.539C274.316 169.014 268.896 173.456 257.374 173.456C256.495 173.456 253.566 173.357 252.882 173.159V163.93C253.615 164.029 255.421 164.127 256.349 164.127C261.573 164.127 264.502 161.906 266.309 156.131L267.383 152.726L247.365 96.7063H259.718L273.632 142.164H273.876L287.791 96.7063H299.801L279.051 155.539ZM150.793 85.6504H164.415C174.667 85.6504 180.526 91.1783 180.526 100.902C180.526 110.625 174.667 116.202 164.366 116.202H150.793V85.6504Z" fill="black"/>
</svg>
