<svg width="348" height="239" viewBox="0 0 348 239" fill="none" xmlns="http://www.w3.org/2000/svg">
<rect width="348" height="239" rx="6" fill="white"/>
<path fill-rule="evenodd" clip-rule="evenodd" d="M164.357 156.924V126.84H179.859C186.212 126.84 191.574 124.708 195.945 120.504L196.994 119.438C204.978 110.732 204.454 97.1712 195.945 89.1173C191.69 84.8534 185.862 82.5439 179.859 82.6623H154.974V156.924H164.357ZM164.358 117.72V91.782H180.096C183.477 91.782 186.683 93.0849 189.073 95.4537C194.144 100.428 194.261 108.719 189.364 113.871C186.974 116.417 183.594 117.839 180.096 117.72H164.358ZM240.763 110.081C236.742 106.35 231.263 104.455 224.328 104.455C215.411 104.455 208.709 107.772 204.279 114.345L212.555 119.616C215.586 115.115 219.724 112.864 224.969 112.864C228.291 112.864 231.496 114.108 234.002 116.358C236.45 118.49 237.849 121.57 237.849 124.827V127.018C234.236 125.005 229.69 123.939 224.095 123.939C217.567 123.939 212.322 125.478 208.417 128.617C204.512 131.756 202.531 135.901 202.531 141.172C202.414 145.968 204.454 150.528 208.068 153.608C211.739 156.924 216.402 158.582 221.88 158.582C228.349 158.582 233.478 155.68 237.383 149.877H237.791V156.924H246.766V125.597C246.766 119.023 244.784 113.812 240.763 110.081ZM215.296 147.567C213.372 146.146 212.207 143.836 212.207 141.349C212.207 138.566 213.489 136.256 215.995 134.42C218.56 132.585 221.766 131.637 225.555 131.637C230.801 131.578 234.881 132.762 237.796 135.131C237.796 139.158 236.222 142.652 233.133 145.613C230.335 148.456 226.546 150.054 222.582 150.054C219.959 150.114 217.394 149.225 215.296 147.567ZM266.931 179.25L298.286 106.113H288.087L273.575 142.593H273.4L258.539 106.113H248.34L268.913 153.667L257.257 179.25H266.931Z" fill="#3C4043"/>
<path d="M131.963 120.326C131.963 117.424 131.73 114.522 131.263 111.68H91.6909V128.084H114.362C113.43 133.354 110.399 138.092 105.97 141.053V151.713H119.491C127.417 144.31 131.963 133.354 131.963 120.326Z" fill="#4285F4"/>
<path d="M91.6927 162.017C102.999 162.017 112.557 158.227 119.493 151.713L105.971 141.053C102.183 143.659 97.3459 145.139 91.6927 145.139C80.7359 145.139 71.4693 137.618 68.1473 127.551H54.2183V138.566C61.3285 152.956 75.8404 162.017 91.6927 162.017Z" fill="#34A853"/>
<path d="M68.1485 127.551C66.3998 122.281 66.3998 116.536 68.1485 111.206V100.251H54.2173C48.2134 112.272 48.2134 126.485 54.2173 138.507L68.1485 127.551Z" fill="#FBBC04"/>
<path d="M91.6927 93.618C97.6956 93.4996 103.465 95.8092 107.778 100.014L119.784 87.8145C112.149 80.5897 102.125 76.6219 91.6927 76.7404C75.8404 76.7404 61.3285 85.8602 54.2183 100.251L68.1473 111.266C71.4693 101.139 80.7359 93.618 91.6927 93.618Z" fill="#EA4335"/>
</svg>
