<svg width="364" height="364" viewBox="0 0 364 364" fill="none" xmlns="http://www.w3.org/2000/svg">
<path d="M182 0C131.826 0 91 40.8203 91 91C91 141.18 131.82 182 182 182C232.18 182 273 141.182 273 91C273 40.8182 232.176 0 182 0Z" fill="#0C0C0C"/>
<path d="M349.691 303.406C333.36 271.93 304.14 246.018 266.988 230.065C229.836 214.113 187.04 209.104 145.862 215.887C104.685 222.67 67.6616 240.829 41.075 267.281C14.4884 293.733 -0.0240508 326.85 2.99198e-05 361.012V364H364V361.012C364.045 341.223 359.179 321.63 349.691 303.406Z" fill="#0C0C0C"/>
</svg>
