<svg width="195" height="224" viewBox="0 0 195 224" fill="none" xmlns="http://www.w3.org/2000/svg">
<path d="M111.429 0C126.75 0 139.286 12.6 139.286 28H167.143C182.464 28 195 40.6 195 56H-3.8147e-06C-3.8147e-06 40.6 12.5357 28 27.8571 28H55.7143C55.7143 12.6 68.25 0 83.5714 0H111.429ZM167.143 84V218.68C167.143 221.76 164.914 224 161.85 224H32.8714C29.8071 224 27.5786 221.76 27.5786 218.68V84H55.4357V182C55.4357 189.84 61.5643 196 69.3643 196C77.1643 196 83.2928 189.84 83.2928 182V84H111.15V182C111.15 189.84 117.279 196 125.079 196C132.879 196 139.007 189.84 139.007 182V84H166.864H167.143Z" fill="#FF4F4F"/>
</svg>
