<svg width="349" height="239" viewBox="0 0 349 239" fill="none" xmlns="http://www.w3.org/2000/svg">
<rect width="349" height="239" rx="6" fill="white"/>
<path fill-rule="evenodd" clip-rule="evenodd" d="M176.993 170.855C165.111 181.095 149.699 187.276 132.857 187.276C95.2782 187.276 64.8145 156.499 64.8145 118.534C64.8145 80.5687 95.2782 49.7917 132.857 49.7917C149.699 49.7917 165.111 55.9734 176.993 66.2133C188.875 55.9734 204.287 49.7917 221.129 49.7917C258.708 49.7917 289.172 80.5687 289.172 118.534C289.172 156.499 258.708 187.276 221.129 187.276C204.287 187.276 188.875 181.095 176.993 170.855Z" fill="#ED0006"/>
<path fill-rule="evenodd" clip-rule="evenodd" d="M176.993 170.855C191.623 158.246 200.9 139.484 200.9 118.534C200.9 97.5835 191.623 78.8219 176.993 66.2133C188.875 55.9734 204.287 49.7917 221.129 49.7917C258.708 49.7917 289.172 80.5687 289.172 118.534C289.172 156.499 258.708 187.276 221.129 187.276C204.287 187.276 188.875 181.095 176.993 170.855Z" fill="#F9A000"/>
<path fill-rule="evenodd" clip-rule="evenodd" d="M176.993 66.2136C191.623 78.8222 200.9 97.5836 200.9 118.534C200.9 139.484 191.623 158.246 176.993 170.854C162.363 158.246 153.086 139.484 153.086 118.534C153.086 97.5836 162.363 78.8222 176.993 66.2136Z" fill="#FF5E00"/>
</svg>
