<svg xmlns="http://www.w3.org/2000/svg" viewBox="0 0 1393.66 161.15"><defs><style>.cls-1{fill:#fff;}</style></defs><g id="Ebene_2" data-name="Ebene 2"><g id="Ebene_1-2" data-name="Ebene 1"><path class="cls-1" d="M1393.66,0V85.39c-14.42,0-21.88-6.44-33.83-17.81s-27.12-25.82-53.27-25.82-40.64,14.19-52.37,25.6c-10.75,10.47-18.52,18-34.73,18-14.43,0-21.89-6.44-33.84-17.81s-27.12-25.82-53.27-25.82S1091.71,56,1080,67.36c-10.76,10.47-18.53,18-34.74,18-14.43,0-21.89-6.44-33.83-17.81S984.3,41.76,958.14,41.76,917.5,56,905.78,67.36c-10.76,10.47-18.53,18-34.74,18-14.42,0-21.89-6.44-33.83-17.81s-27.12-25.82-53.27-25.82S743.3,56,731.57,67.36c-10.75,10.47-18.53,18-34.74,18C682.41,85.39,675,79,663,67.58s-27.12-25.82-53.27-25.82S569.09,56,557.37,67.36c-10.76,10.47-18.53,18-34.74,18-14.43,0-21.89-6.44-33.84-17.81s-27.12-25.82-53.27-25.82S394.88,56,383.16,67.36c-10.76,10.47-18.53,18-34.74,18-14.43,0-21.89-6.44-33.83-17.81s-27.12-25.82-53.28-25.82S220.67,56,209,67.36c-10.76,10.47-18.53,18-34.74,18-14.43,0-21.89-6.44-33.83-17.81S113.26,41.76,87.11,41.76,46.47,56,34.74,67.36C24,77.83,16.21,85.39,0,85.39V0Z"/><path class="cls-1" d="M1336.39,92.2c12.72,12.11,28.55,27.19,57.27,27.19v41.76H0V119.39c30,0,45.79-15.34,58.45-27.66,10.79-10.5,17-16,28.66-16,12,0,18.47,5.64,29.82,16.44,12.72,12.11,28.55,27.19,57.28,27.19,30,0,45.78-15.34,58.45-27.66,10.79-10.5,17-16,28.65-16,12,0,18.48,5.64,29.83,16.44,12.72,12.11,28.55,27.19,57.28,27.19,30,0,45.78-15.34,58.45-27.66,10.78-10.5,17-16,28.65-16,12,0,18.48,5.64,29.83,16.44,12.72,12.11,28.55,27.19,57.28,27.19,30,0,45.78-15.34,58.44-27.66,10.79-10.5,17-16,28.66-16,12,0,18.48,5.64,29.83,16.44,12.72,12.11,28.55,27.19,57.27,27.19,30,0,45.79-15.34,58.45-27.66,10.79-10.5,17-16,28.66-16,12,0,18.47,5.64,29.82,16.44,12.72,12.11,28.55,27.19,57.28,27.19,30,0,45.78-15.34,58.45-27.66,10.79-10.5,17-16,28.65-16,12,0,18.48,5.64,29.83,16.44,12.72,12.11,28.55,27.19,57.28,27.19,30,0,45.78-15.34,58.45-27.66,10.79-10.5,17-16,28.65-16,12,0,18.48,5.64,29.83,16.44,12.72,12.11,28.55,27.19,57.28,27.19,30,0,45.78-15.34,58.44-27.66,10.79-10.5,17-16,28.66-16C1318.56,75.76,1325,81.4,1336.39,92.2Z"/></g></g></svg>