<svg xmlns="http://www.w3.org/2000/svg" viewBox="0 0 2899.25 237.86"><defs><style>.cls-1{fill:#fff;}</style></defs><g id="Ebene_2" data-name="Ebene 2"><g id="Ebene_1-2" data-name="Ebene 1"><path class="cls-1" d="M2899.25,140.38v97.48H0V131c2.58-3,5.43-6.72,7.91-9,15.91-14.85,21.69-18.13,30.64-18.13,10.72,0,22.09,12.79,30.4,22.13,1.63,1.84,3.18,3.58,4.7,5.21,2.07,2.23,4,4.35,5.88,6.38,2.6,2.83,5.1,5.56,7.57,8.14h0c12.35,13,23.7,22.39,40.49,23.1.92,0,1.81.05,2.69.05,23.19,0,33.13-14.11,42.75-26.9l1.17-1.55.43-.55,6.77-8.52.27-.33c2.58-3,5.43-6.72,7.91-9,15.91-14.85,21.69-18.13,30.64-18.13,10.72,0,22.09,12.79,30.4,22.13,1.63,1.84,3.18,3.58,4.7,5.21,2.07,2.23,4,4.35,5.88,6.38,2.6,2.83,5.1,5.56,7.57,8.14h0c12.35,13,23.7,22.39,40.49,23.1.92,0,1.81.05,2.69.05,23.19,0,33.13-14.11,42.75-26.9l1.17-1.55.06-.07.21-.27.31-.4.31-.4,6.33-8,.12-.15.13-.16c2.58-3,5.43-6.72,7.91-9,15.91-14.85,21.69-18.13,30.64-18.13,10.72,0,22.09,12.79,30.4,22.13,1.63,1.84,3.18,3.58,4.7,5.21,2.07,2.23,4,4.35,5.88,6.38,2.6,2.83,5.1,5.56,7.57,8.14h0c12.35,13,23.7,22.39,40.49,23.1.92,0,1.81.05,2.69.05,23.19,0,33.13-14.11,42.75-26.9l1.17-1.55L545,131c2.58-3,5.43-6.72,7.91-9,15.91-14.85,21.69-18.13,30.64-18.13,10.72,0,22.09,12.79,30.4,22.13,1.63,1.84,3.18,3.58,4.7,5.21,2.07,2.23,4,4.35,5.88,6.38,2.6,2.83,5.1,5.56,7.57,8.14h0c12.35,13,23.7,22.39,40.49,23.1.92,0,1.81.05,2.69.05,23.19,0,33.13-14.11,42.75-26.9l1.17-1.55,7.47-9.4c2.58-3,5.43-6.72,7.91-9,15.91-14.85,21.69-18.13,30.64-18.13,10.72,0,22.09,12.79,30.4,22.13,1.63,1.84,3.18,3.58,4.7,5.21,2.07,2.23,4,4.35,5.88,6.38,2.6,2.83,5.1,5.56,7.57,8.14h0c12.35,13,23.7,22.39,40.49,23.1.92,0,1.81.05,2.69.05,23.19,0,33.13-14.11,42.75-26.9l1.17-1.55.43-.55,6.77-8.52.27-.33c2.58-3,5.43-6.72,7.91-9,15.91-14.85,21.69-18.13,30.64-18.13,10.72,0,22.09,12.79,30.4,22.13,1.63,1.84,3.18,3.58,4.7,5.21,2.07,2.23,4,4.35,5.88,6.38,2.6,2.83,5.1,5.56,7.57,8.14h0c12.35,13,23.7,22.39,40.49,23.1.92,0,1.81.05,2.69.05,23.19,0,33.13-14.11,42.75-26.9l1.17-1.55.06-.07.21-.27.31-.4,6.76-8.5.13-.16c2.58-3,5.43-6.72,7.91-9,15.91-14.85,21.69-18.13,30.64-18.13,10.72,0,22.09,12.79,30.4,22.13,1.63,1.84,3.18,3.58,4.7,5.21,2.07,2.23,4,4.35,5.88,6.38,2.6,2.83,5.1,5.56,7.57,8.14h0c12.35,13,23.7,22.39,40.49,23.1.92,0,1.81.05,2.69.05,23.19,0,33.13-14.11,42.75-26.9l1.17-1.55,7.47-9.4c2.58-3,5.43-6.72,7.91-9,15.91-14.85,21.69-18.13,30.64-18.13,10.72,0,22.09,12.79,30.4,22.13,1.63,1.84,3.18,3.58,4.7,5.21,2.07,2.23,4,4.35,5.88,6.38,2.6,2.83,5.1,5.56,7.57,8.14h0c12.35,13,23.7,22.39,40.49,23.1.92,0,1.81.05,2.69.05,23.19,0,33.13-14.11,42.75-26.9l1.17-1.55c4.36-5.31,6.8-8.51,7.34-9.24l0,0,.09-.12c2.58-3,5.43-6.72,7.91-9,15.91-14.85,21.69-18.13,30.64-18.13,10.72,0,22.09,12.79,30.4,22.13,1.63,1.84,3.18,3.58,4.7,5.21,2.07,2.23,4,4.35,5.88,6.38,2.6,2.83,5.1,5.56,7.57,8.14h0c12.35,13,23.7,22.39,40.49,23.1.92,0,1.81.05,2.69.05,23.19,0,33.13-14.11,42.75-26.9l1.17-1.55.43-.55,6.77-8.52.27-.33c2.58-3,5.43-6.72,7.91-9,15.91-14.85,21.69-18.13,30.64-18.13,10.72,0,22.09,12.79,30.4,22.13,1.63,1.84,3.18,3.58,4.7,5.21,2.07,2.23,4,4.35,5.88,6.38,2.6,2.83,5.1,5.56,7.57,8.14h0c12.35,13,23.7,22.39,40.49,23.1.92,0,1.81.05,2.69.05,23.19,0,33.13-14.11,42.75-26.9l1.17-1.55.06-.07.21-.27.31-.4,6.76-8.5.13-.16c2.58-3,5.43-6.72,7.91-9,15.91-14.85,21.69-18.13,30.64-18.13,10.72,0,22.09,12.79,30.4,22.13,1.63,1.84,3.18,3.58,4.7,5.21,2.07,2.23,4,4.35,5.88,6.38,2.6,2.83,5.1,5.56,7.57,8.14h0c12.35,13,23.7,22.39,40.49,23.1.92,0,1.81.05,2.69.05,23.19,0,33.13-14.11,42.75-26.9l1.17-1.55,7.47-9.4c2.58-3,5.43-6.72,7.91-9,15.91-14.85,21.69-18.13,30.64-18.13,10.72,0,22.09,12.79,30.4,22.13,1.63,1.84,3.18,3.58,4.7,5.21,2.07,2.23,4,4.35,5.88,6.38,2.6,2.83,5.1,5.56,7.57,8.14h0c12.35,13,23.7,22.39,40.49,23.1.92,0,1.81.05,2.69.05,23.19,0,33.13-14.11,42.75-26.9l1.17-1.55,0,0,.19-.25.27-.34,6.76-8.5.21-.26c2.58-3,5.43-6.72,7.91-9,15.91-14.85,21.69-18.13,30.64-18.13,10.72,0,22.09,12.79,30.4,22.13,1.63,1.84,3.18,3.58,4.7,5.21,2.07,2.23,4,4.35,5.88,6.38,2.6,2.83,5.1,5.56,7.57,8.14h0c12.35,13,23.7,22.39,40.49,23.1.92,0,1.81.05,2.69.05,23.19,0,33.13-14.11,42.75-26.9l1.17-1.55.43-.55,6.77-8.52.27-.33c2.58-3,5.43-6.72,7.91-9,15.91-14.85,21.69-18.13,30.64-18.13,10.72,0,22.09,12.79,30.4,22.13,1.63,1.84,3.18,3.58,4.7,5.21,2.07,2.23,4,4.35,5.88,6.38,2.6,2.83,5.1,5.56,7.57,8.14h0c12.35,13,23.7,22.39,40.49,23.1.92,0,1.81.05,2.69.05,23.19,0,33.13-14.11,42.75-26.9l1.17-1.55.06-.07.21-.27.31-.4,6.76-8.5.13-.16c2.58-3,5.43-6.72,7.91-9,15.91-14.85,21.69-18.13,30.64-18.13,10.72,0,22.09,12.79,30.4,22.13,1.63,1.84,3.18,3.58,4.7,5.21,2.07,2.23,4,4.35,5.88,6.38,2.6,2.83,5.1,5.56,7.57,8.14h0c12.35,13,23.7,22.39,40.49,23.1.92,0,1.81.05,2.69.05,23.19,0,33.13-14.11,42.75-26.9l1.17-1.55,7.47-9.4c2.58-3,5.43-6.72,7.91-9,15.91-14.85,21.69-18.13,30.64-18.13,10.72,0,22.09,12.79,30.4,22.13,1.63,1.84,3.18,3.58,4.7,5.21,2.07,2.23,4,4.35,5.88,6.38,2.6,2.83,5.1,5.56,7.57,8.14h0c12.35,13,23.7,22.39,40.49,23.1.92,0,1.81.05,2.69.05,23.19,0,33.13-14.11,42.75-26.9Z"/><path class="cls-1" d="M2899.25,0V92c-11.84,12.75-18,23.41-24.69,30.5-10.37,11-12.51,12.67-20.59,12.32-6.65-.28-12.69-6.56-25.72-20.74-1.91-2.08-3.91-4.26-6-6.55-1.25-1.35-2.67-2.94-4.18-4.63-1.81-2-3.77-4.24-5.88-6.51h0c-11.48-12.35-27.39-26.55-48.55-26.55-15.91,0-27,6.24-38.55,15.94a36.37,36.37,0,0,0-7.47,6.23c-11.84,12.75-18,23.41-24.69,30.5-10.37,11-12.51,12.67-20.59,12.32-6.65-.28-12.69-6.56-25.72-20.74-1.91-2.08-3.91-4.26-6-6.55-1.25-1.35-2.67-2.94-4.18-4.63-1.81-2-3.77-4.24-5.88-6.51h0C2619,84,2603.09,69.81,2581.93,69.81c-15.91,0-27,6.24-38.55,15.94h0a42,42,0,0,0-7.46,6.22c-11.84,12.75-18,23.41-24.69,30.5-10.37,11-12.51,12.67-20.59,12.32-6.65-.28-12.69-6.56-25.72-20.74-1.91-2.08-3.91-4.26-6-6.55-1.25-1.35-2.67-2.94-4.18-4.63-1.81-2-3.77-4.24-5.88-6.51h0c-11.48-12.35-27.39-26.55-48.55-26.55-15.91,0-27,6.24-38.55,15.94l-.2.16-.45.38-.51.42-1.16,1c-.41.33-.83.69-1.24,1l-.32.27-.61.51-2.38,2-.12.1c-.1.08-.18.14-.24.2l-.24.2c-11.84,12.75-18,23.41-24.69,30.5-10.37,11-12.51,12.67-20.59,12.32-6.65-.28-12.69-6.56-25.72-20.74-1.91-2.08-3.91-4.26-6-6.55-1.25-1.35-2.67-2.94-4.18-4.63-1.81-2-3.77-4.24-5.88-6.51h0c-11.48-12.35-27.39-26.55-48.55-26.55-15.91,0-27,6.24-38.55,15.94l-.05,0a54,54,0,0,0-7.42,6.19c-11.84,12.75-18,23.41-24.69,30.5-10.37,11-12.51,12.67-20.59,12.32-6.65-.28-12.69-6.56-25.72-20.74-1.91-2.08-3.91-4.26-6-6.55-1.25-1.35-2.67-2.94-4.18-4.63-1.81-2-3.77-4.24-5.88-6.51h0C2074,84,2058.08,69.81,2036.92,69.81c-15.91,0-27,6.24-38.55,15.94A36.37,36.37,0,0,0,1990.9,92c-11.84,12.75-18,23.41-24.69,30.5-10.37,11-12.51,12.67-20.59,12.32-6.65-.28-12.69-6.56-25.72-20.74-1.91-2.08-3.91-4.26-6-6.55-1.25-1.35-2.67-2.94-4.18-4.63-1.81-2-3.77-4.24-5.88-6.51h0c-11.48-12.35-27.39-26.55-48.55-26.55-15.91,0-27,6.24-38.55,15.94h0a42,42,0,0,0-7.46,6.22c-11.84,12.75-18,23.41-24.69,30.5-10.37,11-12.51,12.67-20.59,12.32-6.65-.28-12.69-6.56-25.72-20.74-1.91-2.08-3.91-4.26-6-6.55-1.25-1.35-2.67-2.94-4.18-4.63-1.81-2-3.77-4.24-5.88-6.51h0c-11.48-12.35-27.39-26.55-48.55-26.55-15.91,0-27,6.24-38.55,15.94l-.2.16-.45.38-.51.42-1.16,1c-.41.33-.83.69-1.24,1l-.32.27-.61.51-2.38,2-.12.1c-.1.08-.18.14-.24.2l-.24.2c-11.84,12.75-18,23.41-24.69,30.5-10.37,11-12.51,12.67-20.59,12.32-6.65-.28-12.69-6.56-25.72-20.74-1.91-2.08-3.91-4.26-6-6.55-1.25-1.35-2.67-2.94-4.18-4.63-1.81-2-3.77-4.24-5.88-6.51h0C1529,84,1513.07,69.81,1491.91,69.81c-15.91,0-27,6.24-38.55,15.94-2.21,1.8-5.1,4.23-6.55,5.46l-.35.29-.25.22,0,0-.14.11a.69.69,0,0,0-.12.11l0,0c-11.84,12.75-18,23.41-24.69,30.5-10.37,11-12.51,12.67-20.59,12.32-6.65-.28-12.69-6.56-25.72-20.74-1.91-2.08-3.91-4.26-6-6.55-1.25-1.35-2.67-2.94-4.18-4.63-1.81-2-3.77-4.24-5.88-6.51h0c-11.48-12.35-27.39-26.55-48.55-26.55-15.91,0-27,6.24-38.55,15.94a36.37,36.37,0,0,0-7.47,6.23c-11.84,12.75-18,23.41-24.69,30.5-10.37,11-12.51,12.67-20.59,12.32-6.65-.28-12.69-6.56-25.72-20.74-1.91-2.08-3.91-4.26-6-6.55-1.25-1.35-2.67-2.94-4.18-4.63-1.81-2-3.77-4.24-5.88-6.51h0c-11.48-12.35-27.39-26.55-48.55-26.55-15.91,0-27,6.24-38.55,15.94h0a42,42,0,0,0-7.46,6.22c-11.84,12.75-18,23.41-24.69,30.5-10.37,11-12.51,12.67-20.59,12.32-6.65-.28-12.69-6.56-25.72-20.74-1.91-2.08-3.91-4.26-6-6.55-1.25-1.35-2.67-2.94-4.18-4.63-1.81-2-3.77-4.24-5.88-6.51h0C984,84,968.06,69.81,946.9,69.81c-15.91,0-27,6.24-38.55,15.94l-.2.16-.45.38-.51.42-1.16,1c-.41.33-.83.69-1.24,1l-.32.27-.61.51-2.38,2-.12.1c-.1.08-.18.14-.24.2l-.24.2c-11.84,12.75-18,23.41-24.69,30.5-10.37,11-12.51,12.67-20.59,12.32-6.65-.28-12.69-6.56-25.72-20.74-1.91-2.08-3.91-4.26-6-6.55-1.25-1.35-2.67-2.94-4.18-4.63-1.81-2-3.77-4.24-5.88-6.51h0C802.3,84,786.39,69.81,765.23,69.81c-15.91,0-27,6.24-38.55,15.94L719.21,92c-11.84,12.75-18,23.41-24.69,30.5-10.37,11-12.51,12.67-20.59,12.32-6.65-.28-12.69-6.56-25.72-20.74-1.91-2.08-3.91-4.26-6-6.55-1.25-1.35-2.67-2.94-4.18-4.63-1.81-2-3.77-4.24-5.88-6.51h0C620.63,84,604.72,69.81,583.56,69.81c-15.91,0-27,6.24-38.55,15.94A36.37,36.37,0,0,0,537.54,92c-11.84,12.75-18,23.41-24.69,30.5-10.37,11-12.51,12.67-20.59,12.32-6.65-.28-12.69-6.56-25.72-20.74-1.91-2.08-3.91-4.26-6-6.55-1.25-1.35-2.67-2.94-4.18-4.63-1.81-2-3.77-4.24-5.88-6.51h0C439,84,423.05,69.81,401.89,69.81c-15.91,0-27,6.24-38.55,15.94h0A42,42,0,0,0,355.87,92c-11.84,12.75-18,23.41-24.69,30.5-10.37,11-12.51,12.67-20.59,12.32-6.65-.28-12.69-6.56-25.72-20.74-1.91-2.08-3.91-4.26-6-6.55-1.25-1.35-2.67-2.94-4.18-4.63-1.81-2-3.77-4.24-5.88-6.51h0C257.29,84,241.38,69.81,220.22,69.81c-15.91,0-27,6.24-38.55,15.94l-.2.16-.45.38-.51.42-1.16,1c-.41.33-.83.69-1.24,1l-.32.27-.61.51-2.38,2-.12.1c-.1.08-.18.14-.24.2l-.24.2c-11.84,12.75-18,23.41-24.69,30.5-10.37,11-12.51,12.67-20.59,12.32-6.65-.28-12.69-6.56-25.72-20.74-1.91-2.08-3.91-4.26-6-6.55-1.25-1.35-2.67-2.94-4.18-4.63-1.81-2-3.77-4.24-5.88-6.51h0C75.62,84,59.71,69.81,38.55,69.81c-15.91,0-27,6.24-38.55,15.94V0Z"/></g></g></svg>